<svg xmlns="http://www.w3.org/2000/svg" xmlns:xlink="http://www.w3.org/1999/xlink" width="851" zoomAndPan="magnify" viewBox="0 0 638.25 236.249991" height="315" preserveAspectRatio="xMidYMid meet" version="1.0"><defs><g/><clipPath id="3f7822c627"><path d="M 1 1.445312 L 229.988281 1.445312 L 229.988281 230.039062 L 1 230.039062 Z M 1 1.445312 " clip-rule="nonzero"/></clipPath><clipPath id="814396c709"><rect x="0" width="522" y="0" height="231"/></clipPath></defs><g transform="matrix(1, 0, 0, 1, 50, 2)"><g clip-path="url(#814396c709)"><path fill="#0f5da7" d="M 133.789062 118.417969 C 124.28125 135.421875 106.097656 146.90625 85.234375 146.90625 C 64.371094 146.90625 46.1875 135.421875 36.683594 118.417969 C 38.546875 114.769531 41.113281 111.386719 44.246094 108.367188 C 45.539062 107.105469 46.9375 105.910156 48.421875 104.796875 C 55.695312 99.289062 65.105469 95.410156 75.636719 93.921875 C 77.523438 93.652344 79.453125 93.460938 81.402344 93.351562 C 81.910156 93.328125 82.414062 93.308594 82.925781 93.292969 L 82.886719 93.484375 L 82.582031 95.074219 L 74.742188 129.882812 L 85.234375 141.5 L 95.722656 129.882812 L 87.882812 95.074219 L 87.574219 93.484375 L 87.535156 93.292969 C 88.050781 93.308594 88.554688 93.328125 89.058594 93.351562 C 91.007812 93.460938 92.9375 93.652344 94.828125 93.921875 C 105.359375 95.410156 114.765625 99.289062 122.039062 104.796875 C 127.117188 108.628906 131.15625 113.261719 133.789062 118.417969 " fill-opacity="1" fill-rule="nonzero"/><path fill="#0f5da7" d="M 77.507812 87.894531 C 78.863281 88.320312 80.269531 88.636719 81.714844 88.832031 C 82.5 88.9375 83.292969 89.007812 84.101562 89.042969 C 84.46875 89.066406 84.847656 89.066406 85.230469 89.066406 C 85.613281 89.066406 85.992188 89.066406 86.359375 89.042969 C 87.167969 89.007812 87.964844 88.9375 88.746094 88.832031 C 90.191406 88.636719 91.597656 88.320312 92.953125 87.894531 C 103.511719 84.609375 111.175781 74.765625 111.175781 63.128906 C 111.175781 48.804688 99.5625 37.191406 85.230469 37.191406 C 70.902344 37.191406 59.289062 48.804688 59.289062 63.128906 C 59.289062 74.765625 66.949219 84.609375 77.507812 87.894531 " fill-opacity="1" fill-rule="nonzero"/><g clip-path="url(#3f7822c627)"><path fill="#0f5da7" d="M 85.234375 19.261719 C 121.625 19.261719 151.125 48.765625 151.125 85.152344 C 151.125 96.820312 148.097656 107.777344 142.773438 117.277344 C 131.507812 137.429688 109.960938 151.046875 85.234375 151.046875 C 60.507812 151.046875 38.960938 137.429688 27.695312 117.277344 C 22.371094 107.777344 19.34375 96.820312 19.34375 85.152344 C 19.34375 48.765625 48.84375 19.261719 85.234375 19.261719 Z M 227.726562 215.945312 L 150.4375 138.65625 L 153.480469 134.433594 C 154.269531 133.339844 155.035156 132.222656 155.761719 131.089844 L 155.761719 131.082031 C 165.742188 115.726562 170.4375 97.347656 169.039062 78.890625 C 167.523438 58.859375 158.882812 40.019531 144.695312 25.835938 C 128.835938 9.976562 107.722656 1.246094 85.234375 1.246094 C 62.742188 1.246094 41.625 9.976562 25.769531 25.835938 C -2.652344 54.253906 -6.441406 98.125 14.425781 130.664062 C 17.613281 135.664062 21.402344 140.390625 25.769531 144.757812 C 28.125 147.113281 30.601562 149.308594 33.171875 151.34375 C 33.59375 151.671875 34.011719 152.003906 34.433594 152.324219 C 43.574219 159.277344 53.960938 164.226562 65.042969 166.933594 C 71.566406 168.53125 78.335938 169.347656 85.234375 169.347656 C 92.109375 169.347656 98.871094 168.53125 105.402344 166.933594 C 115.773438 164.398438 125.574219 159.886719 134.367188 153.546875 L 136.066406 152.324219 L 137.289062 151.445312 L 138.589844 150.503906 L 215.875 227.789062 C 217.460938 229.375 219.5625 230.246094 221.796875 230.246094 C 224.039062 230.246094 226.140625 229.375 227.726562 227.789062 C 229.308594 226.207031 230.171875 224.101562 230.171875 221.863281 C 230.171875 219.628906 229.308594 217.527344 227.726562 215.945312 " fill-opacity="1" fill-rule="nonzero"/></g><g fill="#0f5da7" fill-opacity="1"><g transform="translate(174.092179, 151.4533)"><g><path d="M 3.3125 0 L 3.3125 -29 L 9.609375 -29 L 9.609375 0 Z M 3.3125 0 "/></g></g></g><g fill="#0f5da7" fill-opacity="1"><g transform="translate(195.093186, 151.4533)"><g><path d="M 15.65625 -22.90625 C 18.195312 -22.90625 20.207031 -22.054688 21.6875 -20.359375 C 23.164062 -18.660156 23.90625 -16.390625 23.90625 -13.546875 L 23.90625 0 L 17.859375 0 L 17.859375 -12.59375 C 17.859375 -15.9375 16.554688 -17.609375 13.953125 -17.609375 C 12.410156 -17.609375 11.191406 -17.082031 10.296875 -16.03125 C 9.398438 -14.976562 8.953125 -13.554688 8.953125 -11.765625 L 8.953125 0 L 2.90625 0 L 2.90625 -22.375 L 7.046875 -22.375 L 8.25 -19.59375 C 9.070312 -20.613281 10.128906 -21.421875 11.421875 -22.015625 C 12.722656 -22.609375 14.132812 -22.90625 15.65625 -22.90625 Z M 15.65625 -22.90625 "/></g></g></g><g fill="#0f5da7" fill-opacity="1"><g transform="translate(229.718844, 151.4533)"><g><path d="M 13.828125 -5.390625 L 16.5625 -5.390625 L 16.5625 0 L 12.296875 0 C 9.835938 0 7.894531 -0.707031 6.46875 -2.125 C 5.050781 -3.550781 4.34375 -5.507812 4.34375 -8 L 4.34375 -17.515625 L 0.296875 -17.515625 L 0.296875 -18.8125 L 9.15625 -28.203125 L 10.265625 -28.203125 L 10.265625 -22.375 L 16.4375 -22.375 L 16.4375 -17.515625 L 10.390625 -17.515625 L 10.390625 -8.78125 C 10.390625 -7.707031 10.6875 -6.875 11.28125 -6.28125 C 11.875 -5.6875 12.722656 -5.390625 13.828125 -5.390625 Z M 13.828125 -5.390625 "/></g></g></g><g fill="#0f5da7" fill-opacity="1"><g transform="translate(255.606503, 151.4533)"><g><path d="M 24.609375 -11.265625 C 24.609375 -10.679688 24.566406 -10.085938 24.484375 -9.484375 L 7.578125 -9.484375 C 7.828125 -7.960938 8.4375 -6.796875 9.40625 -5.984375 C 10.375 -5.171875 11.585938 -4.765625 13.046875 -4.765625 C 14.097656 -4.765625 15.035156 -4.988281 15.859375 -5.4375 C 16.691406 -5.894531 17.328125 -6.523438 17.765625 -7.328125 L 24.15625 -7.328125 C 23.320312 -4.898438 21.910156 -2.96875 19.921875 -1.53125 C 17.929688 -0.09375 15.640625 0.625 13.046875 0.625 C 10.835938 0.625 8.851562 0.109375 7.09375 -0.921875 C 5.34375 -1.960938 3.960938 -3.375 2.953125 -5.15625 C 1.953125 -6.9375 1.453125 -8.945312 1.453125 -11.1875 C 1.453125 -13.425781 1.953125 -15.429688 2.953125 -17.203125 C 3.960938 -18.984375 5.34375 -20.390625 7.09375 -21.421875 C 8.851562 -22.460938 10.835938 -22.984375 13.046875 -22.984375 C 15.335938 -22.984375 17.351562 -22.453125 19.09375 -21.390625 C 20.832031 -20.328125 22.1875 -18.910156 23.15625 -17.140625 C 24.125 -15.378906 24.609375 -13.421875 24.609375 -11.265625 Z M 13.046875 -17.859375 C 11.691406 -17.859375 10.550781 -17.484375 9.625 -16.734375 C 8.707031 -15.984375 8.082031 -14.945312 7.75 -13.625 L 18.5625 -13.625 C 17.675781 -16.445312 15.835938 -17.859375 13.046875 -17.859375 Z M 13.046875 -17.859375 "/></g></g></g><g fill="#0f5da7" fill-opacity="1"><g transform="translate(289.693807, 151.4533)"><g><path d="M 14.328125 -22.484375 L 16.3125 -22.484375 L 16.3125 -16.78125 L 13.703125 -16.78125 C 11.992188 -16.78125 10.773438 -16.378906 10.046875 -15.578125 C 9.316406 -14.773438 8.953125 -13.460938 8.953125 -11.640625 L 8.953125 0 L 2.90625 0 L 2.90625 -22.375 L 6.796875 -22.375 L 7.875 -19.640625 C 9.382812 -21.535156 11.535156 -22.484375 14.328125 -22.484375 Z M 14.328125 -22.484375 "/></g></g></g><g fill="#0f5da7" fill-opacity="1"><g transform="translate(314.628985, 151.4533)"><g><path d="M 17.5625 -22.375 L 23.859375 -22.375 L 14.953125 0 L 9.359375 0 L 0.296875 -22.375 L 6.703125 -22.375 L 12.21875 -7.375 Z M 17.5625 -22.375 "/></g></g></g><g fill="#0f5da7" fill-opacity="1"><g transform="translate(346.894153, 151.4533)"><g><path d="M 2.90625 -25.34375 L 2.90625 -30.984375 L 8.953125 -30.984375 L 8.953125 -25.34375 Z M 2.90625 0 L 2.90625 -22.375 L 8.953125 -22.375 L 8.953125 0 Z M 2.90625 0 "/></g></g></g><g fill="#0f5da7" fill-opacity="1"><g transform="translate(366.81845, 151.4533)"><g><path d="M 24.609375 -11.265625 C 24.609375 -10.679688 24.566406 -10.085938 24.484375 -9.484375 L 7.578125 -9.484375 C 7.828125 -7.960938 8.4375 -6.796875 9.40625 -5.984375 C 10.375 -5.171875 11.585938 -4.765625 13.046875 -4.765625 C 14.097656 -4.765625 15.035156 -4.988281 15.859375 -5.4375 C 16.691406 -5.894531 17.328125 -6.523438 17.765625 -7.328125 L 24.15625 -7.328125 C 23.320312 -4.898438 21.910156 -2.96875 19.921875 -1.53125 C 17.929688 -0.09375 15.640625 0.625 13.046875 0.625 C 10.835938 0.625 8.851562 0.109375 7.09375 -0.921875 C 5.34375 -1.960938 3.960938 -3.375 2.953125 -5.15625 C 1.953125 -6.9375 1.453125 -8.945312 1.453125 -11.1875 C 1.453125 -13.425781 1.953125 -15.429688 2.953125 -17.203125 C 3.960938 -18.984375 5.34375 -20.390625 7.09375 -21.421875 C 8.851562 -22.460938 10.835938 -22.984375 13.046875 -22.984375 C 15.335938 -22.984375 17.351562 -22.453125 19.09375 -21.390625 C 20.832031 -20.328125 22.1875 -18.910156 23.15625 -17.140625 C 24.125 -15.378906 24.609375 -13.421875 24.609375 -11.265625 Z M 13.046875 -17.859375 C 11.691406 -17.859375 10.550781 -17.484375 9.625 -16.734375 C 8.707031 -15.984375 8.082031 -14.945312 7.75 -13.625 L 18.5625 -13.625 C 17.675781 -16.445312 15.835938 -17.859375 13.046875 -17.859375 Z M 13.046875 -17.859375 "/></g></g></g><g fill="#0f5da7" fill-opacity="1"><g transform="translate(400.905754, 151.4533)"><g><path d="M 28.875 -22.375 L 34.875 -22.375 L 27.546875 0 L 22.703125 0 L 17.609375 -11.5625 L 12.640625 0 L 7.78125 0 L 0.375 -22.375 L 6.546875 -22.375 L 10.9375 -9.03125 L 16.78125 -22.203125 L 18.46875 -22.203125 L 24.484375 -8.984375 Z M 28.875 -22.375 "/></g></g></g><g fill="#0f5da7" fill-opacity="1"><g transform="translate(444.269432, 151.4533)"><g><path d="M 2.484375 0 L 2.484375 -6.46875 L 8.90625 -6.46875 L 8.90625 0 Z M 2.484375 0 "/></g></g></g><g fill="#0f5da7" fill-opacity="1"><g transform="translate(463.696777, 151.4533)"><g><path d="M 21.171875 -22.40625 L 25.6875 -22.40625 L 25.6875 -0.046875 L 20.921875 -0.046875 L 20.421875 -2.03125 C 19.453125 -1.195312 18.351562 -0.546875 17.125 -0.078125 C 15.894531 0.390625 14.578125 0.625 13.171875 0.625 C 10.929688 0.625 8.925781 0.109375 7.15625 -0.921875 C 5.394531 -1.960938 4.003906 -3.375 2.984375 -5.15625 C 1.960938 -6.9375 1.453125 -8.957031 1.453125 -11.21875 C 1.453125 -13.457031 1.960938 -15.46875 2.984375 -17.25 C 4.003906 -19.03125 5.394531 -20.429688 7.15625 -21.453125 C 8.925781 -22.472656 10.929688 -22.984375 13.171875 -22.984375 C 14.609375 -22.984375 15.945312 -22.742188 17.1875 -22.265625 C 18.425781 -21.785156 19.53125 -21.113281 20.5 -20.25 Z M 13.671875 -5.09375 C 14.828125 -5.09375 15.867188 -5.351562 16.796875 -5.875 C 17.722656 -6.40625 18.445312 -7.128906 18.96875 -8.046875 C 19.5 -8.972656 19.765625 -10.03125 19.765625 -11.21875 C 19.765625 -12.382812 19.5 -13.425781 18.96875 -14.34375 C 18.445312 -15.269531 17.722656 -16.003906 16.796875 -16.546875 C 15.867188 -17.085938 14.828125 -17.359375 13.671875 -17.359375 C 12.484375 -17.359375 11.429688 -17.085938 10.515625 -16.546875 C 9.609375 -16.003906 8.890625 -15.269531 8.359375 -14.34375 C 7.835938 -13.425781 7.578125 -12.382812 7.578125 -11.21875 C 7.578125 -10.03125 7.835938 -8.976562 8.359375 -8.0625 C 8.890625 -7.15625 9.609375 -6.429688 10.515625 -5.890625 C 11.429688 -5.359375 12.484375 -5.09375 13.671875 -5.09375 Z M 13.671875 -5.09375 "/></g></g></g><g fill="#0f5da7" fill-opacity="1"><g transform="translate(500.351646, 151.4533)"><g><path d="M 2.90625 -25.34375 L 2.90625 -30.984375 L 8.953125 -30.984375 L 8.953125 -25.34375 Z M 2.90625 0 L 2.90625 -22.375 L 8.953125 -22.375 L 8.953125 0 Z M 2.90625 0 "/></g></g></g></g></g></svg>